# xmcd CD database file
#
# Track frame offsets:
#	150
#	17617
#	35474
#	55839
#	70770
#	92249
#	112725
#	132560
#	150278
#	162729
#	180781
#	198972
#	215603
#	233543
#	251901
#	271151
#	290986
#	313357
#
# Disc length: 4429 seconds
#
# Revision: 0
# Processed by: cddbd v1.5.1PL0 Copyright (c) Steve Scherf et al.
# Submitted via: CDex 1.51
#
DISCID=fe114b12
DTITLE=El Zafiro Carlos Manuel - Grandes Exitos
DYEAR=2004
DGENRE=Merengue
TTITLE0=El cantante del amor
TTITLE1=Y tu no correspondes
TTITLE2=Lo que mas queria
TTITLE3=No puedo estar sin ti
TTITLE4=Esa mujer a mi me gusta
TTITLE5=Yo quisiera estar contigo
TTITLE6=A nadie le importa
TTITLE7=Ya no se
TTITLE8=Aunque me cueste la vida
TTITLE9=El cheque
TTITLE10=Porque tu me gustas
TTITLE11=Señora
TTITLE12=No volvere
TTITLE13=Hace un mes
TTITLE14=No se que hacer (Lamento Zafiro)
TTITLE15=Eso no me gusta
TTITLE16=Que siga nuestro amor
TTITLE17=Ya lo veras ( yo vivire sin ti)
EXTD=YEAR: 2004
EXTT0=
EXTT1=
EXTT2=
EXTT3=
EXTT4=
EXTT5=
EXTT6=
EXTT7=
EXTT8=
EXTT9=
EXTT10=
EXTT11=
EXTT12=
EXTT13=
EXTT14=
EXTT15=
EXTT16=
EXTT17=
PLAYORDER=
